<svg width="600" height="500" viewBox="0 0 600 500" fill="none" xmlns="http://www.w3.org/2000/svg">
<path d="M375.275 64.3499C375.275 58.9222 372.132 53.7802 367.275 51.4949C362.132 48.9239 356.418 49.7809 352.132 53.2089L225.556 154.049L375.275 303.738V64.3499Z" fill="white"/>
<path d="M456.821 425.604L85.3794 54.2378C79.8078 48.6673 70.7503 48.6673 65.1787 54.2378C59.6071 59.8083 59.6071 68.8639 65.1787 74.4344L155.068 164.334H146.696C137.838 164.334 130.124 168.333 124.981 174.618C120.695 179.474 118.123 186.044 118.123 192.9V307.167C118.123 322.878 130.981 335.733 146.696 335.733H212.984L352.132 446.858C354.703 448.857 357.846 450 360.989 450C362.989 450 365.275 449.429 367.275 448.572C372.133 446.286 375.276 441.144 375.276 435.717V384.497L436.592 445.801C439.392 448.6 443.049 450 446.707 450C450.364 450 454.021 448.6 456.821 445.829C462.393 440.23 462.393 431.203 456.821 425.604Z" fill="white"/>
</svg>
