<svg width="600" height="500" viewBox="0 0 600 500" fill="none" xmlns="http://www.w3.org/2000/svg">
<path d="M366.919 51.4166C361.95 49.0453 356.096 49.6738 351.813 53.1308L212.919 164.298H146.556C130.821 164.298 118 177.126 118 192.868V307.149C118 322.92 130.821 335.719 146.556 335.719H212.919L351.784 446.886C354.383 448.943 357.553 450 360.722 450C362.835 450 364.948 449.514 366.919 448.571C371.859 446.2 375 441.2 375 435.715V64.3018C375 58.8163 371.859 53.8165 366.919 51.4166Z" fill="white"/>
<path d="M458.24 136.732C451.936 130.524 441.824 130.62 435.616 136.86C429.408 143.164 429.472 153.276 435.744 159.516C459.936 183.388 473.248 215.484 473.248 249.884C473.248 284.284 459.936 316.38 435.744 340.252C429.472 346.428 429.408 356.572 435.616 362.876C438.752 366.044 442.88 367.612 446.976 367.612C451.04 367.612 455.104 366.076 458.24 362.972C488.576 333.116 505.248 292.924 505.248 249.884C505.248 206.844 488.576 166.652 458.24 136.732Z" fill="white"/>
<path d="M503.392 91.6442C497.088 85.4042 486.976 85.4682 480.736 91.7402C474.528 98.0122 474.592 108.156 480.832 114.364C517.216 150.428 537.248 198.556 537.248 249.884C537.248 301.212 517.216 349.308 480.832 385.372C474.592 391.612 474.528 401.756 480.736 408.028C483.904 411.164 488 412.732 492.096 412.732C496.16 412.732 500.256 411.196 503.392 408.092C545.888 366.012 569.248 309.82 569.248 249.884C569.248 189.948 545.888 133.756 503.392 91.6442Z" fill="white"/>
</svg>
