<svg width="100" height="100" viewBox="0 0 100 100" fill="none" xmlns="http://www.w3.org/2000/svg">
<path d="M31 34C14.6617 28.4545 35.4518 12.9561 38 27M75.5 55C89.3122 55.2664 88.9244 35.7644 75.5 35.5M57.5 22.5C57.5 19 64 19.5 64 22.5M33 73C27.5 73 29 79 33 79M26.5 55C17 55 30 43 30 51.5M54.5 71C56.782 60.5733 71.9875 72.1452 59.5 76M95 50C95 74.8528 74.8528 95 50 95C41.5963 95 33.7306 92.6964 27 88.6862C15.3392 92.4481 10.6641 87.4445 12.5777 75C7.79136 67.8495 5 59.2507 5 50C5 39.4156 8.65425 29.6846 14.7699 22C13.7449 13.3828 16.4446 9.73058 24.1834 13.1374C31.4916 8.00966 40.3943 5 50 5C74.8528 5 95 25.1472 95 50ZM57.5 40.5C59 40.5 62.5 44 62.5 45.5C62.5 47 59 50 57.5 50C56 50 52.5 47 52.5 45.5C52.5 44 56 40.5 57.5 40.5Z" stroke="#002147" stroke-width="5" stroke-linecap="round"/>
</svg>
