<?xml version="1.0" standalone="no"?>
<!DOCTYPE svg PUBLIC "-//W3C//DTD SVG 20010904//EN"
 "http://www.w3.org/TR/2001/REC-SVG-20010904/DTD/svg10.dtd">
<svg version="1.0" xmlns="http://www.w3.org/2000/svg"
 width="3000.000000pt" height="3000.000000pt" viewBox="0 0 3000.000000 3000.000000"
 preserveAspectRatio="xMidYMid meet">
<metadata>
Created by potrace 1.14, written by Peter Selinger 2001-2017
</metadata>
<g transform="translate(0.000000,3000.000000) scale(0.100000,-0.100000)"
fill="#000000" stroke="none">
<path d="M13265 25867 l-250 -312 -386 -220 -385 -220 -227 -190 -226 -190 -1
-550 c0 -493 7 -723 26 -896 l6 -56 43 24 44 24 181 -228 c100 -125 187 -235
194 -244 6 -10 122 -70 256 -134 l245 -118 305 -57 c168 -32 362 -68 432 -81
l127 -23 201 44 c120 26 204 40 210 34 6 -7 60 -678 60 -757 0 -15 -79 -16
-1057 -19 l-1058 -4 -1899 -397 c-1044 -218 -1904 -397 -1910 -397 -8 0 -132
374 -318 953 l-305 952 71 39 c39 21 72 40 74 41 4 3 -609 2040 -618 2056 -12
18 -144 24 -191 9 -21 -7 -39 -16 -39 -20 0 -12 -310 -1514 -316 -1530 -5 -14
-144 328 -144 354 0 6 29 34 65 61 36 27 65 53 65 59 0 11 -863 1759 -887
1795 -14 22 -20 23 -78 19 -35 -3 -81 -14 -102 -24 l-38 -19 -22 -960 -23
-959 48 -43 c26 -24 60 -50 76 -59 26 -15 28 -19 23 -62 -3 -26 -39 -458 -79
-960 l-72 -913 74 -68 c41 -37 89 -81 106 -97 l32 -29 -176 -765 c-96 -421
-176 -766 -176 -767 -2 -3 -280 37 -284 41 -2 2 10 7 26 11 27 5 33 16 76 125
25 65 46 122 46 125 0 3 -198 471 -440 1040 -242 568 -441 1039 -442 1046 -2
7 12 17 29 22 32 10 113 102 113 128 0 7 -237 469 -528 1026 l-527 1014 -75
-7 c-41 -3 -97 -13 -125 -22 l-50 -17 0 -1132 c0 -622 3 -1134 7 -1138 3 -4
44 -12 90 -19 l83 -12 -3 -69 c-1 -39 -25 -556 -53 -1150 -27 -594 -48 -1089
-47 -1099 2 -15 29 -26 133 -56 123 -35 130 -38 127 -61 -12 -85 -234 -1235
-240 -1240 -4 -4 -145 -92 -313 -196 -168 -103 -618 -399 -1000 -657 -681
-461 -720 -489 -771 -572 -4 -6 -64 -948 -133 -2094 l-126 -2082 48 -77 c27
-42 1211 -1731 2632 -3753 2230 -3175 2587 -3679 2615 -3687 17 -6 2013 -600
4436 -1321 l4404 -1311 4441 1297 c2442 712 4448 1301 4457 1307 17 11 5178
7303 5265 7437 l42 65 -95 2090 -95 2090 -42 54 c-36 47 -139 120 -741 527
-652 442 -811 543 -2375 1515 -922 573 -1689 1051 -1705 1063 -20 16 -34 41
-50 91 l-21 70 -160 128 c-193 155 -275 217 -284 217 -5 0 -26 -41 -49 -91
-33 -73 -45 -90 -59 -85 -10 2 -79 17 -153 32 -74 15 -138 30 -142 33 -7 6
-102 1469 -117 1802 l-8 188 -97 155 c-110 176 -97 163 -483 473 l-212 170
-118 7 c-259 15 -545 26 -674 26 l-137 0 -60 -92 c-512 -795 -508 -787 -553
-1043 -14 -79 -139 -1104 -139 -1139 0 -2 -33 4 -73 12 l-74 16 -78 145 c-43
80 -98 172 -122 203 l-43 57 -83 -35 c-72 -31 -94 -47 -187 -138 l-105 -103
-840 178 c-462 98 -894 185 -960 194 -103 13 -324 15 -1597 15 l-1477 0 6 33
c4 25 -23 122 -106 382 -62 193 -114 355 -116 362 -3 8 52 30 155 63 l158 50
60 -14 60 -14 140 79 c120 67 170 87 348 145 l209 67 310 240 c170 133 327
254 347 270 l37 29 76 -46 c42 -25 83 -46 92 -46 9 0 66 12 127 27 103 24 118
25 206 16 l95 -10 106 53 c93 46 110 59 137 101 17 26 56 68 87 93 l55 45 0
70 c0 54 -12 111 -50 248 l-50 179 -97 149 c-60 93 -109 157 -128 168 -16 11
-133 71 -259 135 l-230 116 -114 -193 c-202 -338 -402 -705 -402 -733 0 -11
24 -80 54 -154 l53 -134 78 -24 c67 -20 76 -25 64 -37 -8 -8 -88 -67 -179
-130 l-165 -116 -6 38 c-4 21 -10 207 -14 413 -4 206 -10 418 -14 470 l-6 95
-277 345 -276 345 -103 46 -103 46 -86 144 -86 144 -437 335 -437 335 -373
128 c-204 70 -374 127 -377 127 -3 0 -117 -141 -255 -313z m1381 -3449 c3 -18
15 -60 26 -93 11 -33 21 -67 23 -75 2 -8 31 -109 65 -225 65 -219 74 -261 59
-271 -5 -3 -7 -9 -4 -14 3 -5 1 -11 -5 -15 -6 -4 -8 -10 -6 -13 5 -8 -210 -10
-217 -2 -3 3 -8 25 -11 50 -3 25 -8 54 -10 65 -6 34 -17 98 -21 130 -2 17 -6
46 -10 65 -3 19 -8 49 -11 65 -2 17 -6 41 -9 55 -2 14 -7 43 -10 65 -3 23 -7
52 -10 65 -3 13 -7 42 -10 65 -3 22 -8 47 -11 56 -2 9 1 16 8 17 7 0 40 10 73
21 80 27 82 26 91 -11z"/>
</g>
</svg>
