<?xml version="1.0" standalone="no"?>
<!DOCTYPE svg PUBLIC "-//W3C//DTD SVG 20010904//EN"
 "http://www.w3.org/TR/2001/REC-SVG-20010904/DTD/svg10.dtd">
<svg version="1.0" xmlns="http://www.w3.org/2000/svg"
 width="700.000000pt" height="700.000000pt" viewBox="0 0 700.000000 700.000000"
 preserveAspectRatio="xMidYMid meet">
<metadata>
Created by potrace 1.14, written by Peter Selinger 2001-2017
</metadata>
<g transform="translate(0.000000,700.000000) scale(0.100000,-0.100000)"
fill="#000000" stroke="none">
<path d="M3367 6824 c-1 -1 -45 -4 -97 -8 -52 -3 -108 -8 -125 -10 -16 -2 -57
-7 -90 -11 -32 -4 -66 -8 -75 -10 -8 -2 -55 -10 -105 -20 -352 -65 -744 -211
-1045 -391 -178 -106 -148 -97 -245 -69 -104 30 -160 38 -244 37 -133 -2 -243
-46 -328 -132 -123 -125 -174 -299 -166 -577 l3 -124 -69 -97 c-38 -53 -94
-140 -125 -192 -31 -52 -61 -102 -66 -110 -29 -48 -144 -292 -183 -391 -60
-152 -141 -421 -161 -534 -3 -16 -10 -55 -16 -85 -33 -169 -54 -401 -53 -600
0 -112 10 -315 17 -355 2 -11 6 -47 10 -80 4 -33 11 -82 16 -110 5 -27 12 -61
14 -75 30 -164 110 -455 146 -535 5 -11 19 -44 30 -74 57 -148 155 -343 265
-526 13 -22 22 -47 20 -55 -15 -57 -22 -361 -11 -445 9 -67 17 -121 22 -137 3
-9 7 -25 9 -36 13 -70 76 -209 123 -272 75 -100 190 -185 309 -225 91 -31 128
-36 263 -40 121 -3 226 9 371 45 l87 22 66 -36 c109 -59 299 -143 433 -192
119 -43 340 -108 408 -120 17 -3 48 -9 70 -14 46 -10 164 -30 215 -36 19 -2
49 -6 65 -8 155 -24 626 -24 740 -1 11 2 45 7 76 10 31 3 67 8 80 10 13 3 38
7 54 10 17 3 53 10 80 15 28 6 60 12 72 15 13 2 74 17 136 34 742 198 1410
664 1850 1291 37 52 70 100 75 106 4 5 13 21 21 35 8 13 31 51 51 84 103 169
214 409 285 615 41 120 105 359 119 440 3 19 7 44 10 55 2 11 9 61 16 110 6
50 14 101 16 115 22 134 22 595 0 715 -2 11 -7 47 -11 80 -4 32 -8 66 -10 75
-1 8 -6 35 -10 60 -4 25 -9 56 -12 70 -10 63 -57 246 -89 350 -238 766 -753
1426 -1438 1845 -207 127 -432 233 -656 311 -122 42 -377 108 -476 124 -113
18 -117 18 -169 26 -27 3 -58 8 -67 10 -60 10 -491 26 -501 18z m368 -358 c44
-4 94 -9 110 -11 17 -2 48 -6 70 -9 384 -49 820 -208 1165 -425 320 -200 638
-504 862 -821 234 -332 426 -797 488 -1180 5 -36 12 -76 14 -90 34 -199 39
-566 11 -775 -2 -16 -7 -52 -10 -78 -3 -26 -10 -71 -16 -100 -6 -29 -12 -63
-15 -77 -47 -254 -172 -590 -314 -845 -245 -440 -632 -844 -1052 -1096 -82
-49 -315 -168 -393 -201 -180 -76 -447 -156 -600 -182 -77 -13 -165 -25 -220
-31 -33 -3 -80 -8 -105 -11 -111 -13 -454 -6 -575 11 -16 3 -46 7 -65 9 -19 2
-51 7 -70 10 -19 3 -46 8 -60 10 -118 20 -363 86 -465 126 -220 86 -358 151
-500 235 -74 43 -104 53 -119 38 -3 -4 -12 -8 -19 -9 -7 -1 -52 -13 -102 -27
-142 -40 -202 -50 -315 -50 -119 -1 -158 5 -215 34 -136 70 -195 218 -196 489
0 90 7 202 15 246 2 11 7 45 11 77 l7 57 -80 127 c-224 360 -371 759 -427
1166 -3 20 -7 52 -9 70 -28 201 -24 561 9 764 3 18 8 50 11 71 13 91 32 179
59 279 27 97 97 308 120 358 7 17 31 71 54 120 79 178 194 368 330 550 50 66
89 127 86 135 -9 33 -19 180 -17 279 1 115 27 225 61 255 56 51 196 31 390
-56 l63 -28 92 63 c227 158 496 293 761 382 40 14 217 64 245 70 118 25 224
45 260 49 25 3 68 8 95 11 163 20 398 24 570 11z"/>
<path d="M4120 5755 c-108 -28 -196 -97 -239 -190 -27 -57 -36 -161 -19 -203
14 -32 55 -80 81 -94 34 -18 110 -20 149 -4 45 19 94 78 103 122 5 31 9 34 41
34 48 0 71 -14 79 -50 9 -40 63 -95 110 -110 108 -36 225 46 228 159 5 235
-265 405 -533 336z"/>
<path d="M2208 5685 c-1 -1 -24 -6 -49 -9 -64 -9 -151 -40 -228 -82 -292 -160
-431 -449 -341 -710 51 -147 177 -272 366 -364 179 -86 252 -94 324 -34 81 68
85 191 8 260 -26 24 -81 54 -98 54 -22 0 -155 72 -198 107 -48 39 -82 98 -82
141 0 74 98 195 200 247 101 51 215 52 270 3 52 -46 90 -122 105 -209 16 -90
87 -151 175 -151 68 0 126 36 159 99 46 90 -34 336 -153 470 -98 109 -225 169
-377 177 -42 3 -79 3 -81 1z"/>
<path d="M5218 4677 c-124 -58 -144 -214 -37 -299 30 -24 50 -30 130 -39 222
-24 363 -108 449 -270 106 -200 75 -455 -74 -604 -87 -87 -201 -130 -368 -139
-44 -2 -92 -12 -113 -22 -87 -41 -119 -167 -63 -251 39 -59 85 -77 189 -76
308 5 566 142 713 378 160 257 173 584 34 860 -141 280 -420 457 -743 470 -58
3 -99 0 -117 -8z"/>
<path d="M3914 4314 c-177 -72 -387 -308 -409 -462 -20 -136 95 -310 288 -439
170 -113 295 -112 468 3 187 124 302 297 286 429 -16 125 -155 308 -315 415
-122 82 -212 97 -318 54z m205 -415 c34 -34 61 -69 61 -79 0 -19 -86 -102
-129 -125 -33 -17 -56 -5 -138 69 -42 37 -51 51 -44 64 13 23 89 103 125 130
35 27 44 22 125 -59z"/>
<path d="M1950 3783 c-139 -16 -244 -68 -352 -174 -64 -62 -85 -91 -116 -160
-24 -50 -40 -102 -41 -128 -1 -24 -3 -47 -4 -50 -4 -18 18 -92 39 -128 51 -89
159 -147 297 -162 95 -10 136 -4 179 26 67 46 94 135 64 207 l-14 34 36 -15
c75 -31 183 10 218 83 31 66 17 209 -30 303 -51 100 -177 175 -276 164z m-24
-380 c-2 -10 2 -37 9 -60 14 -46 13 -48 -15 -33 -17 9 -60 17 -98 19 -16 1 3
22 57 63 42 32 50 34 47 11z"/>
<path d="M3985 2481 c-79 -25 -127 -55 -188 -115 -89 -88 -166 -269 -154 -361
11 -78 78 -141 157 -147 97 -7 150 36 191 154 35 101 69 138 129 138 70 0 154
-46 190 -105 29 -46 25 -68 -18 -107 -33 -30 -172 -98 -200 -98 -18 0 -72 -58
-87 -93 -29 -70 -13 -140 45 -195 29 -28 44 -35 105 -46 54 -10 260 80 354
154 61 49 134 149 151 208 47 154 4 313 -119 444 -61 66 -157 129 -245 161
-71 27 -242 31 -311 8z"/>
<path d="M2268 2065 c-1 -1 -23 -5 -48 -8 -107 -14 -195 -61 -255 -134 -151
-184 -77 -465 152 -582 55 -28 147 -49 199 -45 117 7 196 120 159 228 -24 69
-76 109 -155 121 -47 7 -80 28 -80 52 0 7 8 13 18 14 102 4 144 19 186 69 71
85 43 214 -57 266 -25 13 -110 27 -119 19z"/>
</g>
</svg>
